<svg xmlns="http://www.w3.org/2000/svg" width="32" height="32" fill="none" viewBox="0 0 32 32"><path fill="#ffa200" d="M8.689 2a4.69 4.69 0 0 0-4.69 4.69v19.418a4.69 4.69 0 0 0 4.69 4.69h14.622A4.69 4.69 0 0 0 28 26.107V11.645a1.8 1.8 0 0 0-.525-1.259l-7.868-7.868A1.78 1.78 0 0 0 18.348 2z"/><path fill="#ee9702" d="m26.936 10.436-7.868-7.868a1.73 1.73 0 0 0-.913-.475.173.173 0 0 0-.202.173V6.07a5.48 5.48 0 0 0 5.495 5.48h3.805a.18.18 0 0 0 .173-.125.2.2 0 0 0 .007-.075 1.8 1.8 0 0 0-.497-.914"/><path fill="#ffbe4e" d="M23.627 10.674h3.503a1.6 1.6 0 0 0-.194-.238l-7.868-7.868a1.6 1.6 0 0 0-.238-.194v3.503a4.797 4.797 0 0 0 4.797 4.797"/><path fill="#fff" d="M21.497 14.77h1.327l1.053 1.543 1.06-1.543h1.349l-1.68 2.416 1.824 2.632h-1.363l-1.19-1.68-1.168 1.68h-1.334l1.81-2.582zm-4.958 0h4.218v.966h-1.543v4.082h-1.14v-4.082H16.54zm-2.753 0c1.283 0 2.019.634 2.019 1.752 0 1.176-.736 1.854-2.02 1.854h-1.002v1.442h-1.14v-5.049zm-.058 2.654c.634 0 .995-.289.995-.866 0-.562-.36-.844-.995-.844h-.945v1.71zM8.393 14.77c1.284 0 2.02.634 2.02 1.752 0 1.176-.736 1.854-2.02 1.854H7.39v1.442H6.251v-5.049zm-.058 2.654c.635 0 .995-.289.995-.866 0-.562-.36-.844-.995-.844H7.39v1.71z"/></svg>